<svg width="21" height="18" viewBox="0 0 21 18" fill="none" xmlns="http://www.w3.org/2000/svg">
<path d="M1.9577 16.2675C1.95757 16.4272 1.98893 16.5854 2.04999 16.733C2.11106 16.8806 2.20062 17.0147 2.31356 17.1276C2.42651 17.2405 2.56061 17.3301 2.7082 17.3912C2.85579 17.4522 3.01398 17.4836 3.1737 17.4835H9.2537V11.4035H1.9537L1.9577 16.2675ZM11.6857 17.4835H17.7657C17.9255 17.4837 18.0838 17.4525 18.2315 17.3915C18.3792 17.3305 18.5134 17.2409 18.6265 17.128C18.7395 17.015 18.8292 16.8809 18.8903 16.7332C18.9514 16.5855 18.9828 16.4273 18.9827 16.2675V11.4035H11.6827L11.6857 17.4835ZM18.9857 5.32347H17.3857C17.6334 4.85481 17.7651 4.33356 17.7697 3.80347C17.7684 2.91699 17.4156 2.0672 16.7888 1.44037C16.162 0.813533 15.3122 0.460795 14.4257 0.459473C12.8447 0.459473 11.8257 1.26847 10.5117 3.05947C9.2007 1.27347 8.1787 0.459473 6.5977 0.459473C5.71122 0.460795 4.86143 0.813533 4.2346 1.44037C3.60776 2.0672 3.25502 2.91699 3.2537 3.80347C3.25643 4.3338 3.38823 4.85548 3.6377 5.32347H1.9617C1.80164 5.32281 1.64303 5.35379 1.49497 5.41461C1.34692 5.47544 1.21234 5.56492 1.09898 5.67792C0.98561 5.79091 0.895687 5.92519 0.834374 6.07305C0.773061 6.2209 0.741567 6.37941 0.7417 6.53947V9.57947C0.742227 9.74056 0.806453 9.8949 0.920361 10.0088C1.03427 10.1227 1.18861 10.1869 1.3497 10.1875H19.5907C19.7518 10.1869 19.9061 10.1227 20.02 10.0088C20.1339 9.8949 20.1982 9.74056 20.1987 9.57947V6.53947C20.1988 6.37975 20.1675 6.22157 20.1064 6.07397C20.0453 5.92638 19.9558 5.79228 19.8428 5.67934C19.7299 5.5664 19.5958 5.47683 19.4482 5.41577C19.3006 5.3547 19.1424 5.32334 18.9827 5.32347H18.9857ZM6.5937 5.32347C6.19057 5.32347 5.80395 5.16333 5.5189 4.87827C5.23384 4.59322 5.0737 4.2066 5.0737 3.80347C5.0737 3.40034 5.23384 3.01373 5.5189 2.72867C5.80395 2.44361 6.19057 2.28347 6.5937 2.28347C7.3497 2.28347 7.9087 2.40847 9.8657 5.32347H6.5937ZM14.4257 5.32347H11.1507C13.1037 2.41647 13.6507 2.28347 14.4227 2.28347C14.8258 2.28347 15.2124 2.44361 15.4975 2.72867C15.7826 3.01373 15.9427 3.40034 15.9427 3.80347C15.9427 4.2066 15.7826 4.59322 15.4975 4.87827C15.2124 5.16333 14.8258 5.32347 14.4227 5.32347H14.4257Z" fill="#5F7D95"/>
</svg>
